<svg width="1046" height="96" viewBox="0 0 1046 96" fill="none" xmlns="http://www.w3.org/2000/svg">
<g clip-path="url(#clip0_14_846)">
<g clip-path="url(#clip1_14_846)">
<g clip-path="url(#clip2_14_846)">
<path fill-rule="evenodd" clip-rule="evenodd" d="M66.0808 81.3689C65.593 79.0492 63.7014 78.4319 61.5807 78.2328C54.7211 77.5956 53.5064 82.7429 53.5064 84.9033C53.5064 88.6169 54.5817 91.6833 61.3219 91.6833C62.5564 91.6833 65.9912 90.409 65.9912 88.3282H75.6684C75.2802 94.5009 64.916 95.9843 60.4059 95.9843C51.0473 95.9843 43.0327 94.2321 43.421 85.0327C43.6998 78.4319 49.9223 73.8024 62.3374 74.0812C69.2369 74.2405 75.8576 76.4009 75.8875 81.3988L66.0808 81.3689Z" fill="#02033B"/>
<path fill-rule="evenodd" clip-rule="evenodd" d="M163.072 81.3689C162.594 79.0492 160.703 78.4319 158.582 78.2328C151.722 77.5956 150.508 82.7429 150.508 84.9033C150.508 88.6169 151.583 91.6833 158.323 91.6833C159.558 91.6833 162.982 90.409 162.982 88.3282H172.68C172.281 94.5009 161.927 95.9843 157.407 95.9843C148.049 95.9843 140.034 94.2321 140.422 85.0327C140.701 78.4319 146.923 73.8024 159.339 74.0812C166.238 74.2405 172.859 76.4009 172.889 81.3988L163.072 81.3689Z" fill="#02033B"/>
<path fill-rule="evenodd" clip-rule="evenodd" d="M77.5601 74.4994H90.1345L100.867 89.5927H100.947V74.4994H109.011V95.407H96.9643L85.714 80.3535H85.6244V95.4269H77.5601V74.4994Z" fill="#02033B"/>
<path fill-rule="evenodd" clip-rule="evenodd" d="M111.5 74.4994H126.763C134.11 74.4994 138.421 76.5503 138.421 79.6566C138.421 81.4885 136.619 83.7585 132.587 84.4255V84.4852C137.435 84.764 139.227 87.8404 139.227 89.6823C139.227 93.3759 135.016 95.4269 126.812 95.4269H111.5V74.4994ZM120.331 82.6235H122.87C126.772 82.6235 128.843 82.3148 128.843 80.692C128.843 79.0692 127.121 78.3723 123.616 78.3723H120.341V82.6235H120.331ZM120.331 91.0363H122.87C127.569 91.0363 129.291 90.5385 129.291 88.9157C129.291 87.2928 127.121 86.6059 123.606 86.6059H120.341V91.0363H120.331Z" fill="#02033B"/>
<path fill-rule="evenodd" clip-rule="evenodd" d="M151.573 42.4113L115.582 66.4848L127.708 37.6623L133.453 24.2515C135.703 19.9506 140.114 17.2027 144.962 17.0733C149.522 17.0434 153.773 19.3731 156.192 23.236C158.841 27.2184 158.99 33.6699 156.342 37.6722C155.097 39.5638 153.475 41.1767 151.583 42.4212" fill="#02033B"/>
<path fill-rule="evenodd" clip-rule="evenodd" d="M133.652 19.6817L115.851 61.7656L115.094 57.1759L109.708 22.6784C109.449 20.6872 110.355 18.7259 112.038 17.6208L114.586 16.0975C114.736 15.5699 113.989 15.3906 113.641 15.2214L108.663 15.1716C108.015 8.01327 113.292 1.69122 120.45 1.03412C122.551 0.844957 124.672 1.16355 126.613 1.97994C131.442 4.11052 134.598 8.83961 134.717 14.1163C134.717 16.0179 134.359 17.9095 133.652 19.6717" fill="#02033B"/>
<path fill-rule="evenodd" clip-rule="evenodd" d="M99.4633 61.9149L81.9407 19.7314C80.0391 14.9924 80.8555 9.59624 84.0713 5.63376C87.3369 1.8007 92.514 0.187832 97.3825 1.47215C101.902 2.80626 105.407 6.39041 106.632 10.9403C107.04 12.6925 107.149 14.4946 106.95 16.2867L99.4633 61.9149Z" fill="#02033B"/>
<path fill-rule="evenodd" clip-rule="evenodd" d="M62.0088 40.888C58.4844 37.9211 56.7222 33.3513 57.3494 28.7914C58.0364 23.7139 61.4911 19.4328 66.3098 17.6806C70.9692 16.1673 76.0866 17.4118 79.5314 20.8963C80.8555 22.2305 81.9009 23.8234 82.6078 25.5657L99.5329 66.5545L62.0088 40.888Z" fill="#02033B"/>
<path fill-rule="evenodd" clip-rule="evenodd" d="M58.1559 70.8355C53.6159 70.3975 49.6335 67.6098 47.6623 63.488C45.462 58.8186 45.9797 53.3229 49.0163 49.1414C52.2818 45.2287 56.9811 43.2574 61.7699 44.2331C63.5918 44.5716 65.3341 45.2984 66.8673 46.3438L103.306 70.8355H58.1559Z" fill="#02033B"/>
<path fill-rule="evenodd" clip-rule="evenodd" d="M157.088 70.8355C161.638 70.4074 165.631 67.6098 167.582 63.478C169.782 58.8087 169.265 53.313 166.238 49.1414C162.972 45.2287 158.273 43.2574 153.474 44.2331C151.653 44.5816 149.91 45.2984 148.377 46.3438L111.938 70.8355H157.088Z" fill="#02033B"/>
</g>
</g>
<g clip-path="url(#clip3_14_846)">
<g clip-path="url(#clip4_14_846)">
<path fill-rule="evenodd" clip-rule="evenodd" d="M328.895 39.6743C329.215 39.5143 329.515 39.3243 329.795 39.1143H339.125C338.905 40.2243 338.625 41.3343 338.295 42.4243C337.295 43.4243 336.165 44.3543 335.065 45.2843C334.215 48.5343 333.285 51.7143 332.465 54.9943C331.085 55.9943 329.805 56.9943 328.465 57.9943C327.065 57.9143 325.745 57.9943 324.245 57.9943C324.325 57.2543 324.645 56.4443 324.735 55.5843C324.305 55.7843 323.885 56.0243 323.495 56.3043C323.105 56.5543 322.715 56.7843 322.295 57.0143C320.695 57.9543 318.835 58.3343 316.995 58.0743C315.715 57.8843 314.565 57.1943 313.795 56.1543C312.025 57.5243 308.545 58.7843 305.665 57.8843C303.825 57.3043 302.835 55.6043 303.255 53.1843C302.565 53.2943 301.875 53.3543 301.185 53.3743C300.955 53.9243 300.755 54.4943 300.585 55.0643C299.585 55.7743 298.585 56.6043 297.585 57.4043C297.285 57.6943 296.945 57.9443 296.585 58.1543C295.845 58.2243 295.105 58.2243 294.365 58.1543C293.625 58.2143 292.885 58.2143 292.145 58.1543C293.345 53.6743 294.565 48.6743 295.895 44.0143C296.005 43.3543 296.185 42.7143 296.425 42.0943C296.675 41.7943 296.965 41.5243 297.285 41.3043C298.205 40.5443 299.175 39.9043 300.035 39.1143H304.035C305.375 39.1143 306.775 38.9843 307.945 39.1143C308.375 39.2043 308.775 39.3643 309.145 39.6043C309.395 39.9643 309.655 40.3343 309.895 40.6943C310.785 40.1243 311.715 39.6243 312.685 39.1943C313.855 38.8443 315.065 38.6943 316.285 38.7743C317.845 38.8343 319.285 39.4443 319.825 40.6943C321.065 39.5843 322.615 38.8843 324.265 38.6943C325.865 38.4943 327.495 38.8243 328.895 39.6343M328.365 40.0543C327.395 39.4643 326.265 39.1843 325.125 39.2343C324.475 39.2743 323.825 39.4043 323.205 39.6143C322.005 39.8543 320.945 40.5243 320.205 41.4943C319.615 42.4743 319.405 43.6343 319.605 44.7643C319.975 45.6043 320.485 46.3643 321.125 47.0243C321.695 47.7843 322.385 48.4443 322.855 49.0943C323.045 49.3343 323.195 49.5943 323.305 49.8843C323.615 50.6143 323.275 51.4543 322.555 51.7643C322.365 51.8443 322.165 51.8843 321.965 51.8743C321.855 51.8743 321.825 51.7743 321.775 51.7643C321.725 51.7543 321.635 51.7643 321.545 51.7643C320.645 51.3443 321.015 50.4543 321.175 49.5043H317.785C317.455 50.3543 317.265 51.2643 317.225 52.1743C317.325 54.0143 319.095 54.8043 320.945 54.8143C322.285 54.8743 323.605 54.5243 324.745 53.8143C325.305 53.5143 325.815 53.1143 326.245 52.6443C327.025 51.6143 327.405 50.3243 327.305 49.0343C327.065 47.8443 326.415 46.7843 325.465 46.0343C324.775 45.4543 324.145 44.7943 323.585 44.0843C323.305 43.6143 323.225 43.0643 323.365 42.5343C323.645 42.1143 324.145 41.8943 324.645 41.9743C325.805 42.1643 325.435 43.7343 325.245 44.5343C326.245 44.6143 327.475 44.5343 328.405 44.5343C328.895 43.2343 329.515 41.0243 328.405 40.0143M311.545 40.3143C311.195 40.5343 310.885 40.7943 310.615 41.1043C310.385 41.3043 310.185 41.5343 310.015 41.7843C309.865 42.1843 309.755 42.6043 309.675 43.0243C308.955 45.5243 308.255 48.0243 307.605 50.4343C307.465 50.8543 307.355 51.2843 307.265 51.7143C307.045 53.0743 307.925 54.3643 309.265 54.6543C311.655 55.2343 314.425 54.6043 315.705 53.2143C316.085 52.8043 316.405 52.3343 316.635 51.8243C316.905 51.1743 317.065 50.2943 317.315 49.4543C317.795 47.8843 318.315 46.2443 318.675 44.6743C318.925 43.8643 319.125 43.0343 319.275 42.1943C319.385 41.5643 319.275 40.9143 318.975 40.3543C318.475 39.8843 317.865 39.5643 317.205 39.4143C316.345 39.2443 315.475 39.2043 314.605 39.2943C313.515 39.4143 312.465 39.7543 311.515 40.2943M330.255 39.6943C330.005 40.4643 329.815 41.2643 329.685 42.0643H331.835C330.835 46.1343 329.665 50.0043 328.675 54.0643C329.745 54.1243 330.805 54.1243 331.875 54.0643C333.025 50.0643 334.025 46.1543 335.145 42.1343C335.945 42.1943 336.755 42.1943 337.555 42.1343C337.755 41.3243 338.055 40.4043 338.195 39.6543C335.195 39.6543 332.785 39.6043 330.255 39.6543M306.985 48.6543C307.455 48.0943 307.795 47.4443 307.985 46.7343C308.425 45.6343 308.755 44.5043 308.985 43.3443C309.145 42.8043 309.255 42.2443 309.295 41.6743C309.385 40.8143 308.845 40.0143 308.015 39.7643C307.405 39.7243 306.785 39.7243 306.175 39.7643H300.605C299.305 44.5843 297.965 49.3543 296.765 54.1743C297.855 54.2343 298.945 54.2343 300.035 54.1743C300.465 52.7043 300.855 51.1743 301.315 49.7743C303.665 49.9243 305.665 49.9443 306.995 48.7243" fill="#02033B"/>
<path fill-rule="evenodd" clip-rule="evenodd" d="M262.555 39.2342H262.705V39.4542H262.555C262.505 39.3742 262.505 39.2742 262.555 39.1942" fill="#02033B"/>
<path fill-rule="evenodd" clip-rule="evenodd" d="M311.015 51.7643C311.015 51.6343 310.955 51.5143 310.865 51.4243C310.955 50.4843 311.155 49.5643 311.465 48.6743C311.865 47.2443 312.245 45.8743 312.665 44.3143C312.775 43.5943 313.065 42.9043 313.495 42.3143C314.085 41.8643 315.495 41.8143 315.605 42.7343C315.575 43.0943 315.505 43.4443 315.375 43.7843C314.975 45.4943 314.535 47.1743 314.065 48.8643C313.875 49.5443 313.765 50.2443 313.535 50.8643C313.445 51.1043 313.335 51.3343 313.195 51.5443C312.585 52.0843 311.705 52.1543 311.015 51.7343" fill="#02033B"/>
<path fill-rule="evenodd" clip-rule="evenodd" d="M266.695 51.5343C266.145 51.9643 265.405 52.0543 264.775 51.7543C264.295 51.1643 264.895 49.8443 265.115 49.0843C265.655 47.2143 266.115 45.5043 266.585 43.6643C266.655 43.3043 266.755 42.9543 266.885 42.6143C267.205 42.0343 268.955 41.7043 269.105 42.6143C269.085 43.0243 269.015 43.4243 268.885 43.8143C268.655 44.9043 268.235 46.1243 267.975 47.1643C267.655 48.6443 267.235 50.1143 266.705 51.5343" fill="#02033B"/>
<path fill-rule="evenodd" clip-rule="evenodd" d="M302.065 47.0943C302.485 45.4943 302.925 43.9043 303.375 42.3143C304.125 42.1243 305.435 42.0643 305.565 42.8043C305.575 43.0743 305.555 43.3343 305.485 43.5943C305.265 44.7143 304.905 45.8043 304.395 46.8343C303.715 47.3043 302.835 47.4043 302.065 47.0943Z" fill="#02033B"/>
<path fill-rule="evenodd" clip-rule="evenodd" d="M276.625 45.7743C276.925 44.5843 277.285 43.4243 277.715 42.2743C278.635 42.4143 280.005 41.8443 279.785 43.3343C279.685 44.0043 279.255 44.8443 279.105 45.4343C278.705 45.9543 277.345 45.8243 276.625 45.7743Z" fill="#02033B"/>
<path fill-rule="evenodd" clip-rule="evenodd" d="M296.385 39.1143H291.385C291.085 39.3843 290.745 39.6543 290.385 39.9043C290.095 40.1843 289.755 40.4143 289.385 40.5843C289.495 40.0943 289.585 39.6043 289.645 39.1143H284.715C284.445 39.3943 284.145 39.6343 283.815 39.8343C283.485 39.5643 283.115 39.3543 282.725 39.1943C282.065 39.1143 281.385 39.1143 280.725 39.1943H274.105C273.765 39.4943 273.415 39.7643 273.045 40.0243C271.515 38.4643 267.775 38.4243 265.565 39.2743C265.395 39.2743 265.565 39.0443 265.305 39.1243H260.445C259.685 39.6743 259.125 40.3043 258.265 40.7743C258.195 40.3743 258.265 39.5843 258.155 39.1143H253.155C252.855 39.3943 252.525 39.6243 252.155 39.7943C252.155 39.5043 252.305 39.3743 252.335 39.1143H247.915C247.365 39.5743 246.765 39.9743 246.125 40.3143C246.105 39.9143 246.075 39.5143 246.015 39.1143H243.815C243.095 39.0343 242.355 39.0343 241.635 39.1143C241.125 39.2643 240.795 39.9943 240.245 40.0543C240.185 39.7343 240.145 39.4043 240.125 39.0743C235.785 39.0943 229.575 38.9043 224.925 39.1143C224.475 39.0643 224.025 39.0343 223.575 39.0443C223.095 39.1443 222.515 40.0443 222.025 40.0443C221.945 39.7143 221.905 39.3443 221.805 39.0443H217.125C216.065 39.7843 215.125 40.6743 214.125 41.4443C213.745 41.7643 213.325 41.9243 213.125 42.2743C212.995 42.7343 212.905 43.2043 212.845 43.6743C212.545 44.7543 212.315 45.6743 212.055 46.6743C211.125 50.4743 209.925 54.4743 209.125 58.1243H213.305C213.995 57.5443 214.715 57.0143 215.485 56.5343C215.625 57.0243 215.605 57.5343 215.745 58.1243H218.745C219.075 58.1543 219.415 58.1543 219.745 58.1243C220.075 58.0443 220.205 57.6243 220.495 57.5543C220.705 57.6743 220.775 57.9343 220.915 58.1243C223.105 57.9743 225.655 58.1743 227.345 58.1243C227.915 58.1743 228.475 58.1743 229.045 58.1243C229.355 57.9643 229.645 57.7543 229.905 57.5243C230.165 57.2743 230.465 57.0843 230.805 56.9543C230.805 57.4043 230.665 57.8043 230.695 58.1243H234.045C234.235 58.1243 234.415 58.1243 234.605 58.1243C235.085 58.0643 235.605 57.5143 235.995 57.2543C236.345 56.9143 236.775 56.6543 237.245 56.5043C237.155 57.0543 236.985 57.5043 236.905 58.0843H238.855C239.565 58.1643 240.295 58.1643 241.005 58.0843C241.325 58.0143 241.735 57.5543 242.055 57.2843C243.125 56.4743 244.325 55.6743 245.235 54.9143C246.605 51.9143 248.095 48.8343 249.495 45.9143C249.695 45.4943 249.775 44.9743 250.165 44.6743C250.415 46.3843 250.635 48.0943 250.805 49.6743C250.925 50.2243 250.985 50.7743 250.995 51.3343C250.885 51.8943 250.735 52.4443 250.545 52.9843L249.185 58.0343H253.775C254.825 57.3143 255.715 56.4543 256.775 55.7743C257.455 57.2043 258.875 58.1343 260.465 58.1843C262.005 58.2943 263.545 57.9643 264.905 57.2443C265.465 56.8943 266.065 56.5943 266.675 56.3443C266.625 56.9443 266.475 57.4443 266.415 58.0343H270.705C271.215 57.6443 271.755 57.2943 272.315 56.9843C272.315 57.4243 272.145 57.6043 272.135 57.9843C274.215 58.0443 276.625 57.9843 278.905 57.9843C279.695 58.0643 280.485 58.0643 281.275 57.9843C281.645 57.8143 281.975 57.5843 282.275 57.3043C282.635 57.0543 282.885 56.7043 283.275 56.6343C283.485 57.0643 283.655 57.5143 283.765 57.9843H288.765C290.105 56.9343 291.375 55.8043 292.765 54.7843C292.095 51.9343 291.455 49.0643 290.845 46.1643C292.645 44.0943 294.425 41.7243 296.125 39.5643C296.205 39.4643 296.435 39.2843 296.345 39.1143M219.955 54.2043C219.555 51.4743 219.375 48.7543 218.955 46.0743C218.125 48.6743 217.465 51.5943 216.575 54.2043C215.675 54.2043 214.665 54.2543 213.825 54.2043C214.975 49.3043 216.285 44.6143 217.475 39.7943C217.495 39.7343 217.535 39.6943 217.595 39.6743H221.315C221.615 41.9843 221.835 44.3743 222.185 46.6743C222.955 44.4043 223.515 41.9343 224.295 39.6743C225.235 39.6343 226.185 39.6643 227.125 39.7543C225.805 44.6743 224.545 49.3843 223.125 54.2043H219.955ZM244.645 54.2043C243.605 54.2643 242.565 54.2643 241.525 54.2043C241.705 51.4343 242.015 48.8443 242.235 46.0443C241.835 46.6743 241.495 47.3443 241.235 48.0443C240.235 50.0443 239.365 52.1943 238.415 54.2543H235.215C235.295 50.2543 235.685 46.1543 235.855 42.2543H231.565C231.115 43.2543 230.865 44.4943 230.475 45.5643C231.595 45.6243 233.095 45.5643 234.385 45.5643C234.275 46.3343 233.925 47.1743 233.745 48.0143H229.875C229.455 49.1743 229.185 50.4943 228.825 51.7043C230.225 51.7043 231.735 51.6543 233.075 51.7043C232.815 52.5343 232.525 53.3343 232.245 54.1443H224.795C225.985 49.2443 227.285 44.4543 228.565 39.6543C232.065 39.5943 235.865 39.6043 239.565 39.6543C239.405 42.0143 239.195 44.4343 238.965 46.7243C239.245 46.5443 239.325 46.1843 239.455 45.9043C240.455 43.9043 241.385 41.7143 242.355 39.6543H245.555C245.435 42.1043 245.105 44.4643 244.985 46.8443C246.255 44.6743 247.325 42.1143 248.525 39.7243C249.385 39.7243 250.415 39.6743 251.455 39.7243C249.195 44.5543 246.925 49.3843 244.645 54.2043ZM259.395 47.4343C259.125 47.7743 258.885 48.1443 258.675 48.5243C258.515 49.0243 258.395 49.5243 258.295 50.0343C257.945 51.3643 257.495 52.8043 257.055 54.2843H253.855C254.155 52.3743 254.855 50.4543 255.285 48.5643C255.305 48.0943 255.255 47.6243 255.125 47.1743C254.805 44.6743 254.445 42.2643 254.125 39.7543C255.345 39.6943 256.125 39.7543 257.505 39.7543C257.645 41.4643 257.795 43.2543 257.885 44.9543C259.015 43.4143 260.035 41.4443 261.155 39.7543C262.105 39.7543 263.375 39.7043 264.435 39.7543C262.865 42.3043 261.045 44.7543 259.385 47.3943M270.185 51.7943C269.765 52.6543 269.115 53.3843 268.315 53.9043C266.535 54.9043 264.435 55.1443 262.475 54.5843C262.015 54.4143 261.015 53.8943 260.865 53.2643C260.545 51.9843 261.185 50.5743 261.455 49.3943C261.895 47.4943 262.455 45.3943 263.005 43.4543C263.155 42.7143 263.445 42.0043 263.875 41.3743C264.815 40.0643 266.315 39.2543 267.935 39.1943C270.205 38.9843 272.425 39.1943 272.785 41.0343C272.835 41.3643 272.835 41.7043 272.785 42.0343C272.645 42.8843 272.445 43.7343 272.185 44.5543C271.765 46.1243 271.325 47.8243 270.875 49.4443C270.625 50.3343 270.445 51.2343 270.195 51.8543M280.315 54.2643C279.125 54.2643 278.195 54.3243 276.855 54.2643C277.005 53.0943 277.475 51.5343 277.795 50.1543C277.895 49.7043 278.165 49.1543 278.055 48.8043C277.835 48.1643 276.645 48.4643 275.915 48.3943C275.235 50.2643 274.775 52.3943 274.175 54.3043C273.055 54.2543 271.885 54.3043 270.865 54.3043C271.385 51.8343 272.125 49.4443 272.745 47.0343C273.365 44.6243 273.935 42.1943 274.665 39.8443H280.015C281.015 39.8443 282.535 39.7543 283.135 40.1843C284.245 40.9943 283.545 42.5743 283.205 43.8743C283.065 44.4943 282.885 45.1143 282.675 45.7143C282.345 46.5343 281.445 46.8043 280.675 47.2143C281.245 47.5143 281.895 47.6143 281.835 48.5343C281.755 49.0443 281.625 49.5543 281.465 50.0443C281.105 51.3543 280.545 53.1643 280.255 54.3643M292.655 43.0343C291.835 44.0343 291.025 45.1343 290.215 46.1943C290.775 48.9343 291.375 51.4743 291.905 54.1943C290.385 54.2743 289.285 54.2643 288.105 54.1943C287.685 52.0643 287.285 49.9243 286.865 47.7943C286.115 49.7943 285.575 52.0543 284.945 54.1943H281.365C281.615 53.0043 281.925 51.8343 282.305 50.6743C282.675 49.4943 282.935 48.2843 283.305 47.0943C283.675 45.9043 284.045 44.6943 284.305 43.4843C284.565 42.2743 285.005 40.9743 285.365 39.8343C286.505 39.7443 287.645 39.7443 288.785 39.8343C288.385 41.4743 287.965 42.9743 287.585 44.5343C288.015 44.2043 288.385 43.8143 288.705 43.3743C289.765 42.2243 290.825 40.9443 291.905 39.7943C292.955 39.7343 294.015 39.7343 295.065 39.7943C294.345 40.9443 293.475 41.9743 292.655 43.0343Z" fill="#02033B"/>
</g>
</g>
<g clip-path="url(#clip5_14_846)">
<g clip-path="url(#clip6_14_846)">
<path d="M375.125 69.7444H417.645V27.2244H375.125V69.7444ZM395.145 37.4644C394.475 35.3244 393.745 34.6344 389.975 34.6344H387.065C386.185 34.6344 385.995 34.8244 385.995 35.6144V41.6844H387.415C390.415 41.6844 391.055 41.1344 391.415 39.1244H392.145V45.9044H391.415C391.015 43.6444 389.885 43.0744 387.415 43.0744H385.985V49.4044C385.985 51.4144 386.525 51.6444 388.815 51.7344V52.4644H379.735V51.7144C381.625 51.6344 382.165 51.4044 382.165 49.3844V36.2944C382.165 34.2844 381.625 34.0544 379.795 33.9744V33.2444H395.845L395.945 37.4744H395.145V37.4644ZM413.385 37.4644C412.775 35.3944 411.875 34.6344 409.845 34.6344H407.475V49.3844C407.475 51.3944 407.995 51.6244 410.175 51.7144V52.4644H400.915V51.7344C403.075 51.6544 403.615 51.4244 403.615 49.4044V34.6544H401.255C399.245 34.6544 398.325 35.4044 397.715 37.4844H396.755L397.155 33.2544H413.995L414.355 37.4844H413.385V37.4644Z" fill="#02033B"/>
<path d="M427.005 44.9144C427.005 45.9144 427.285 45.9944 428.395 46.0344V46.3944H423.975V46.0344C424.895 45.9944 425.175 45.8744 425.175 44.9144V38.5444C425.175 37.5444 424.895 37.4644 424.025 37.4244V37.0644H431.835L431.875 39.1344H431.475C431.155 38.0944 430.795 37.7844 428.965 37.7844H427.535C427.095 37.7844 427.015 37.8644 427.015 38.2644V41.2144H428.615C430.085 41.2144 430.405 40.9344 430.565 39.9744H430.925V43.2844H430.565C430.365 42.1644 429.805 41.8944 428.615 41.8944H427.015V44.9244L427.005 44.9144ZM436.205 44.9144C436.205 45.9144 436.485 45.9944 437.595 46.0344V46.3944H432.985V46.0344C434.105 45.9944 434.375 45.8744 434.375 44.9144V38.5444C434.375 37.5444 434.135 37.4644 432.985 37.4244V37.0644H437.605V37.4244C436.485 37.4644 436.215 37.5844 436.215 38.5444V44.9144H436.205ZM447.235 38.7844C447.235 37.8644 446.995 37.5044 445.965 37.3944V37.0344H449.275V37.3944C448.235 37.5144 448.005 37.8744 448.005 38.7844V46.5944H447.525L441.155 39.2244V44.6444C441.155 45.5644 441.395 45.9244 442.425 46.0344V46.3944H439.115V46.0344C440.155 45.9144 440.385 45.5544 440.385 44.6444V38.3544C440.145 37.8444 439.665 37.4944 439.115 37.3944V37.0344H441.665L447.245 43.4844V38.7844H447.235ZM452.215 43.0444L453.605 39.3444L454.995 43.0444H452.215ZM458.905 46.3944V46.0344C458.185 46.0344 458.025 45.7544 457.665 44.8844L454.355 36.8344H453.915L450.495 45.1644C450.325 45.6644 449.865 46.0144 449.345 46.0444V46.4044H452.335V46.0444C451.695 46.0444 451.375 45.8844 451.375 45.4444C451.495 44.8544 451.665 44.2844 451.895 43.7344H455.285C455.535 44.2844 455.715 44.8544 455.845 45.4444C455.845 45.8844 455.485 46.0444 454.845 46.0444V46.4044H458.905V46.3944ZM467.985 38.7644C467.985 37.8444 467.745 37.4844 466.715 37.3744V37.0144H470.025V37.3744C468.985 37.4944 468.755 37.8544 468.755 38.7644V46.5744H468.275L461.915 39.2044V44.6244C461.915 45.5444 462.155 45.9044 463.185 46.0144V46.3744H459.875V46.0144C460.915 45.8944 461.145 45.5344 461.145 44.6244V38.3344C460.905 37.8244 460.425 37.4744 459.875 37.3744V37.0144H462.425L468.005 43.4644V38.7644H467.985ZM479.805 44.1844C479.015 45.7444 477.375 46.7044 475.625 46.6144C472.595 46.6144 470.765 44.6244 470.765 41.6344C470.795 38.9444 472.995 36.7844 475.685 36.8144H475.705C476.585 36.9144 477.455 37.1044 478.295 37.3744C478.575 37.3744 478.655 37.2144 478.895 36.8144H479.375L479.575 39.9244H479.175C478.805 38.4844 477.515 37.4544 476.025 37.4144C473.835 37.4144 472.875 39.8044 472.875 41.5944C472.875 44.1044 473.945 45.8144 476.305 45.8144C477.645 45.7644 478.865 45.0244 479.535 43.8644L479.815 44.1844H479.805ZM484.305 44.9044C484.305 45.9044 484.585 45.9844 485.695 46.0244V46.3844H481.085V46.0244C482.205 45.9844 482.475 45.8644 482.475 44.9044V38.5344C482.475 37.5344 482.195 37.4544 481.085 37.4144V37.0544H485.705V37.4144C484.585 37.4544 484.315 37.5744 484.315 38.5344V44.9044H484.305ZM489.515 43.0344L490.905 39.3344L492.295 43.0344H489.515ZM496.205 46.3844V46.0244C495.485 46.0244 495.325 45.7444 494.965 44.8744L491.655 36.8244H491.215L487.795 45.1544C487.625 45.6544 487.165 46.0044 486.645 46.0344V46.3944H489.635V46.0344C488.995 46.0344 488.675 45.8744 488.675 45.4344C488.795 44.8444 488.965 44.2744 489.195 43.7244H492.585C492.825 44.2744 493.015 44.8444 493.145 45.4344C493.145 45.8744 492.785 46.0344 492.145 46.0344V46.3944H496.205V46.3844ZM497.045 46.3844V46.0244C497.925 45.9844 498.195 45.8644 498.195 44.9044V38.5344C498.195 37.5344 497.915 37.4544 497.045 37.4144V37.0544H501.345V37.4144C500.305 37.4544 500.075 37.5744 500.075 38.5344V45.1044C500.075 45.6644 500.235 45.8644 501.275 45.8644C502.945 45.8644 503.945 45.5444 504.735 43.9144H505.095L504.455 46.4244H497.045V46.3844ZM425.985 61.1244C427.055 61.0844 427.295 60.9644 427.295 60.0044V52.8344H426.145C425.075 52.8344 424.635 53.2744 424.315 54.5444H423.915L424.155 52.1544H432.365L432.605 54.5444H432.205C431.885 53.2644 431.485 52.8344 430.375 52.8344H429.225V60.0044C429.225 61.0044 429.505 61.0844 430.545 61.1244V61.4844H426.045V61.1244H425.985ZM436.785 60.0044C436.785 61.0044 437.065 61.0844 438.175 61.1244V61.4844H433.555V61.1244C434.675 61.0844 434.945 60.9644 434.945 60.0044V53.6344C434.945 52.6344 434.665 52.5544 433.555 52.5144V52.1544H438.185V52.5144C437.065 52.5544 436.795 52.6744 436.795 53.6344V60.0044H436.785ZM447.975 52.1144H451.205V52.4744C450.325 52.5144 450.055 52.6344 450.055 53.5944V59.9644C450.055 60.9644 450.335 61.0444 451.205 61.0844V61.4444H446.975V61.0844C447.895 61.0444 448.175 60.9244 448.175 59.9644V53.3944H448.135L445.025 61.5644H444.585L441.515 53.3944H441.475V59.6844C441.475 60.6044 441.715 60.9644 442.745 61.0744V61.4344H439.435V61.0744C440.475 60.9544 440.705 60.5944 440.705 59.6844V53.3144C440.705 52.6744 440.425 52.4344 439.435 52.4344V52.0744H442.825L445.295 58.5644L447.965 52.1144H447.975ZM452.515 61.4744V61.1144C453.395 61.0744 453.665 60.9544 453.665 59.9944V53.6244C453.665 52.6244 453.385 52.5444 452.515 52.5044V52.1444H460.325L460.365 54.2144H459.965C459.645 53.1744 459.285 52.8644 457.455 52.8644H456.025C455.585 52.8644 455.505 52.9444 455.505 53.3444V56.2944H457.095C458.565 56.2944 458.885 56.0144 459.045 55.0544H459.405V58.3644H459.045C458.845 57.2444 458.285 57.0144 457.095 57.0144H455.505V60.2444C455.505 60.8044 455.665 61.0044 457.335 61.0044C459.005 61.0044 460.005 60.6844 460.795 59.0544H461.155L460.515 61.5644H452.505V61.4844H452.515V61.4744ZM462.395 58.5044H462.755C463.135 59.8644 464.295 60.8744 465.705 61.0544C466.515 61.1244 467.225 60.5344 467.295 59.7244V59.5044C467.295 57.3544 462.435 56.9544 462.435 54.2844C462.545 52.9044 463.715 51.8544 465.105 51.8944C465.955 51.9744 466.795 52.1344 467.615 52.3744C467.875 52.3744 468.085 52.1544 468.095 51.8944H468.455V54.8844H468.095C467.855 53.5944 466.775 52.6344 465.465 52.5344C464.755 52.4544 464.125 52.9544 464.035 53.6644V53.8544C464.035 55.7644 468.895 55.8044 468.895 59.1144C468.855 60.5844 467.625 61.7544 466.155 61.7144H465.985C464.355 61.7144 463.915 61.1544 463.275 61.1544C463.035 61.1544 462.875 61.3144 462.795 61.6344H462.315L462.395 58.5244V58.5044Z" fill="#02033B"/>
</g>
</g>
<g clip-path="url(#clip7_14_846)">
<g clip-path="url(#clip8_14_846)">
<path fill-rule="evenodd" clip-rule="evenodd" d="M669.515 38.3544C669.595 35.8544 667.625 33.7544 665.125 33.6744H664.915C663.115 33.6744 661.225 34.6744 661.515 37.1744C661.695 38.7644 664.175 39.3344 665.515 39.7644C669.515 41.0144 671.095 42.5344 671.095 45.4944C671.095 48.4544 668.635 50.4944 664.245 50.4944C662.095 50.4944 659.705 50.0644 658.245 48.7444L657.735 44.4544H658.145C658.785 48.2744 660.435 49.7744 664.395 49.8744C666.925 49.9344 667.675 48.4944 667.665 46.7144C667.655 44.9344 665.735 44.1644 663.465 43.4144C660.215 42.4144 658.215 41.1344 658.215 38.0244C658.215 34.9144 660.965 32.9044 665.035 32.9044C666.715 32.9544 668.365 33.4144 669.835 34.2444V38.3144L669.515 38.3544Z" fill="#02033B"/>
<path fill-rule="evenodd" clip-rule="evenodd" d="M655.305 34.5644C656.015 34.0844 656.685 33.5544 657.305 32.9544C657.995 32.3744 658.435 31.5544 658.525 30.6544C658.525 30.4844 658.475 30.3044 658.375 30.1644C658.265 30.0344 658.095 29.9644 657.925 29.9744C657.715 30.0144 657.495 30.0344 657.285 30.0444C656.695 30.0644 656.115 29.8244 655.705 29.3944C655.295 28.9444 655.085 28.3444 655.125 27.7344C655.085 27.0644 655.325 26.4144 655.775 25.9244C656.255 25.4444 656.915 25.1844 657.595 25.2244C658.405 25.2044 659.185 25.5444 659.725 26.1444C660.265 26.7544 660.565 27.5344 660.595 28.3444C660.565 29.9744 659.895 31.5244 658.725 32.6544C657.795 33.5844 656.735 34.3744 655.575 34.9944L655.305 34.5644Z" fill="#02033B"/>
<path fill-rule="evenodd" clip-rule="evenodd" d="M618.295 58.4344V63.9944C618.295 65.6744 619.045 66.1944 619.775 66.1944C620.245 66.1644 620.695 66.0644 621.125 65.8744L621.235 66.2244C620.425 66.7344 619.495 67.0144 618.535 67.0444C617.745 67.0444 615.795 66.7644 615.795 64.8544V58.4344H614.255V57.8144H616.065L617.775 55.1544H618.295V57.8144H621.035V58.4444H618.295V58.4344Z" fill="#02033B"/>
<path fill-rule="evenodd" clip-rule="evenodd" d="M612.785 60.4544C612.835 59.1044 611.785 57.9744 610.435 57.9244H610.415H610.295C609.395 57.8144 608.565 58.4544 608.455 59.3644C608.455 59.3644 608.455 59.3744 608.455 59.3844C608.435 59.5244 608.435 59.6744 608.455 59.8144C608.555 60.6744 609.905 60.9844 610.635 61.2144C612.795 61.8944 613.635 62.7144 613.635 64.3144C613.635 65.9144 612.305 67.0344 609.935 67.0344C608.775 67.0944 607.635 66.7344 606.705 66.0344L606.425 63.7244H606.645C606.995 65.7844 607.885 66.5944 610.025 66.6544C610.845 66.8044 611.625 66.2644 611.785 65.4444C611.805 65.2744 611.805 65.1144 611.785 64.9444C611.785 63.9444 610.785 63.5744 609.515 63.1644C607.755 62.6044 606.675 61.9244 606.675 60.2544C606.675 58.5844 608.165 57.4844 610.355 57.4844C611.265 57.5144 612.155 57.7644 612.955 58.2044V60.4044L612.785 60.4544Z" fill="#02033B"/>
<path fill-rule="evenodd" clip-rule="evenodd" d="M651.575 33.2244C650.235 33.2244 648.575 33.9644 646.855 36.1344V33.2244L641.055 34.0744V34.5544C641.055 34.5544 642.335 34.4044 642.855 34.3644V48.1644C642.855 48.7344 642.765 49.4644 641.795 49.4644H640.855V50.1044H649.125V49.4744H648.125C647.495 49.5544 646.925 49.1044 646.845 48.4744C646.825 48.3644 646.825 48.2644 646.845 48.1544V38.5144C647.065 36.3944 648.395 35.1744 649.005 35.1644C650.175 35.1644 650.135 35.9944 651.175 36.4844C652.045 36.9144 653.095 36.5644 653.525 35.6944C653.625 35.4844 653.685 35.2544 653.695 35.0144C653.695 34.0144 653.015 33.2544 651.565 33.2544" fill="#02033B"/>
<path fill-rule="evenodd" clip-rule="evenodd" d="M573.825 33.8444C578.385 33.8444 578.195 39.8444 578.195 39.9044C578.235 40.2844 577.955 40.6344 577.575 40.6744C577.575 40.6744 577.565 40.6744 577.555 40.6744C577.495 40.6744 577.445 40.6744 577.385 40.6744H570.585C570.175 40.6944 569.815 40.3744 569.785 39.9644V39.8144C569.865 37.8144 570.395 33.8144 573.785 33.8144M570.515 41.4444H581.685C581.795 40.4444 581.745 39.4344 581.535 38.4444C581.335 37.3944 580.885 36.3944 580.225 35.5544C579.125 34.2244 577.205 33.2244 573.975 33.2244C568.125 33.2244 565.125 36.9544 565.125 42.0344C565.125 47.1144 567.815 50.6444 574.055 50.6444C578.195 50.6444 580.365 48.7044 581.475 45.9644L581.025 45.7444C579.565 48.6444 577.765 49.7444 574.895 49.7444C570.675 49.7444 569.795 45.7444 569.755 42.3844C569.755 42.3544 569.755 42.3144 569.755 42.2844C569.725 41.8644 570.035 41.4844 570.465 41.4544H570.575" fill="#02033B"/>
<path fill-rule="evenodd" clip-rule="evenodd" d="M600.875 57.8144C603.405 57.8144 603.315 61.0544 603.315 61.0644C603.325 61.2844 603.165 61.4644 602.955 61.4944H599.125C598.895 61.5044 598.695 61.3244 598.675 61.0944V61.0244C598.675 59.9144 599.005 57.8344 600.905 57.8244M599.095 62.0444H605.265C605.305 61.4944 605.265 60.9444 605.125 60.4044C605.015 59.8244 604.775 59.2744 604.405 58.8044C603.525 57.8544 602.245 57.3544 600.955 57.4744C598.445 57.2644 596.245 59.1344 596.035 61.6444C596.035 61.6444 596.035 61.6444 596.035 61.6544C596.015 61.8944 596.015 62.1444 596.035 62.3844C596.035 65.3144 597.515 67.1544 600.975 67.1544C602.795 67.3344 604.505 66.2544 605.125 64.5344L604.805 64.4144C604.275 65.8144 602.905 66.7144 601.405 66.6344C599.075 66.6344 598.655 64.4344 598.635 62.5544C598.615 62.3144 598.795 62.1044 599.035 62.0844" fill="#02033B"/>
<path fill-rule="evenodd" clip-rule="evenodd" d="M631.685 33.8344C636.235 33.8344 636.055 39.8844 636.055 39.9044C636.085 40.2944 635.795 40.6344 635.405 40.6744C635.345 40.6744 635.295 40.6744 635.235 40.6744H628.435C628.015 40.6944 627.665 40.3744 627.635 39.9544V39.8544C627.725 37.8544 628.255 33.8544 631.635 33.8544M628.355 41.4844H639.535C639.645 40.4844 639.585 39.4744 639.375 38.4844C639.205 37.4444 638.775 36.4544 638.125 35.6144C636.965 34.2244 635.065 33.2244 631.835 33.2244C625.995 33.2244 622.955 37.0044 622.955 42.0844C622.955 47.1644 625.635 50.6944 631.875 50.6944C636.025 50.6944 638.195 48.7544 639.305 46.0144L638.865 45.7944C637.395 48.6944 635.595 49.7944 632.725 49.7944C628.505 49.7944 627.625 45.7944 627.585 42.4344C627.585 42.4044 627.585 42.3644 627.585 42.3344C627.545 41.9144 627.855 41.5444 628.275 41.5044H628.295H628.405" fill="#02033B"/>
<path fill-rule="evenodd" clip-rule="evenodd" d="M550.545 37.3444H548.845C548.355 37.4044 547.905 37.0444 547.845 36.5544C547.845 36.5544 547.845 36.5544 547.845 36.5444V27.4344C548.545 27.3244 549.265 27.2844 549.975 27.3044C552.635 27.3044 555.685 28.1544 555.685 32.7244C555.685 36.1244 553.885 37.3444 550.525 37.3444M554.685 37.9244C557.825 37.4344 560.055 35.6744 560.035 32.4044C560.035 29.3044 558.315 26.6544 552.035 26.6544H541.125V27.2244H542.315C542.935 27.1944 543.465 27.6644 543.495 28.2844C543.495 28.3644 543.495 28.4344 543.495 28.5144V48.2244C543.595 48.8844 543.145 49.4944 542.495 49.6044H541.125V50.1444H550.345V49.6044H549.235C548.565 49.6844 547.955 49.2144 547.865 48.5444C547.845 48.4344 547.845 48.3144 547.865 48.2044V39.2044C547.865 39.2044 547.865 39.1744 547.865 39.1544C547.865 38.5744 548.095 38.1544 548.865 38.1544H550.125C552.125 38.1544 555.585 39.4544 556.605 44.9644C557.975 52.4144 564.405 54.0244 570.725 53.7544V53.4144C558.035 52.5244 564.555 38.8144 554.725 37.9144" fill="#02033B"/>
<path fill-rule="evenodd" clip-rule="evenodd" d="M583.185 56.6444C583.835 56.7244 584.435 56.2644 584.515 55.6144C584.515 55.6144 584.515 55.6044 584.515 55.5944V55.4844C584.545 54.8144 584.025 54.2544 583.355 54.2244C583.345 54.2244 583.335 54.2244 583.325 54.2244H583.185C582.515 54.1744 581.915 54.6744 581.855 55.3444V55.4444C581.855 56.1044 582.385 56.6544 583.045 56.6544C583.075 56.6544 583.095 56.6544 583.125 56.6544H583.235" fill="#02033B"/>
<path fill-rule="evenodd" clip-rule="evenodd" d="M584.855 66.4344C584.595 66.4244 584.385 66.2044 584.395 65.9344C584.395 65.9344 584.395 65.9344 584.395 65.9244V57.8644L580.865 58.4644L581.215 58.8544L581.825 58.7944V65.9044C581.855 66.1644 581.665 66.4044 581.405 66.4344H580.765V66.8644H585.685V66.4344H584.865H584.855Z" fill="#02033B"/>
<path fill-rule="evenodd" clip-rule="evenodd" d="M594.815 46.0944C594.815 48.3744 592.405 49.2344 591.215 49.0944C589.125 48.8744 588.295 47.2244 588.295 45.3244C588.135 43.8544 589.085 42.4944 590.525 42.1544C591.955 41.6044 593.985 40.9744 594.805 40.5144V46.0944H594.815ZM601.135 48.8944C600.785 49.2244 600.335 49.4344 599.855 49.4744C599.385 49.5144 598.965 49.1844 598.905 48.7144C598.855 47.8344 598.835 37.9844 598.835 37.9844C598.835 35.9844 597.565 33.2144 591.935 33.2144C587.665 33.2144 584.785 35.2144 584.655 37.1444C584.515 38.0244 585.125 38.8544 586.005 38.9944C586.115 39.0044 586.215 39.0044 586.325 38.9944H586.565C586.645 38.9844 586.715 38.9644 586.795 38.9344L586.955 38.8844C587.585 38.5444 588.015 37.9344 588.135 37.2244C588.515 34.9044 589.355 33.6944 591.825 33.7744C594.715 33.8544 594.825 35.4144 594.825 38.0544V38.4144C594.825 38.7244 594.635 39.8544 592.695 40.6444C590.955 41.0344 589.205 41.3444 587.435 41.5544C585.365 41.8744 583.865 43.7144 583.985 45.8044C583.985 48.3444 585.905 50.4544 589.385 50.5544C592.145 50.6344 593.715 49.1344 594.825 48.4044C595.145 49.5344 596.095 50.3844 597.255 50.5644C598.755 50.7744 600.275 50.3144 601.405 49.3144L601.135 48.8944Z" fill="#02033B"/>
<path fill-rule="evenodd" clip-rule="evenodd" d="M615.535 45.1444C615.585 45.7544 615.495 46.3644 615.265 46.9244C614.555 48.5744 613.035 49.0444 611.265 49.0444C607.945 49.0444 607.025 45.4844 607.025 41.5944C607.025 37.2744 608.025 34.2744 611.575 34.2744C613.135 34.2044 614.595 35.0744 615.265 36.4944C615.525 37.1844 615.625 37.9144 615.565 38.6444L615.535 45.1444ZM620.955 49.3944C619.875 49.3944 619.535 48.8644 619.535 47.9644V25.3644L612.875 26.0844V26.6944L615.535 26.5344V35.5344C614.655 34.1544 613.165 33.2744 611.535 33.1844C609.045 33.0144 606.585 33.8644 604.735 35.5444C602.955 37.2644 602.005 39.6744 602.125 42.1444C602.125 47.0344 604.705 50.4544 609.705 50.4544C611.855 50.4544 613.935 49.6644 615.535 48.2244V50.0244H621.535V49.3944H620.955Z" fill="#02033B"/>
<path fill-rule="evenodd" clip-rule="evenodd" d="M576.125 64.1044C576.265 65.2044 575.495 66.2044 574.405 66.3444C574.165 66.3744 573.925 66.3644 573.695 66.3144C571.815 66.3144 571.295 64.3144 571.295 62.0944C571.295 59.6544 571.855 57.9544 573.865 57.9544C574.765 57.8944 575.615 58.4044 575.995 59.2244C576.125 59.6044 576.175 60.0244 576.125 60.4244V64.1044ZM579.195 66.5144C578.585 66.5144 578.385 66.2144 578.385 65.7044V52.9044L574.615 53.3044V53.6544L576.125 53.5644V58.6344C575.625 57.8544 574.785 57.3544 573.865 57.3044C572.455 57.2144 571.065 57.6944 570.015 58.6444C568.995 59.6244 568.455 60.9944 568.525 62.4044C568.525 65.1744 569.995 67.1044 572.825 67.1044C574.045 67.1044 575.225 66.6444 576.125 65.8144V66.8144H579.505V66.4544H579.195V66.5144Z" fill="#02033B"/>
<path fill-rule="evenodd" clip-rule="evenodd" d="M590.725 63.2244C589.615 63.2244 588.985 62.3244 588.915 60.7244C588.845 59.1244 589.755 58.2744 590.645 58.2744C591.455 58.2744 592.375 58.8244 592.345 60.7244C592.345 62.2644 591.855 63.2144 590.705 63.2244M590.825 66.9044C592.685 66.9044 593.705 67.3244 593.645 68.6944C593.655 69.9644 592.635 71.0044 591.365 71.0244C591.265 71.0244 591.175 71.0244 591.075 71.0244C589.395 71.0244 588.365 70.1344 588.325 68.6244C588.305 68.1344 588.525 67.6544 588.925 67.3644C589.485 66.9844 590.175 66.8344 590.845 66.9244M593.845 57.4644C594.485 57.4644 594.465 57.9244 595.035 58.1944C595.515 58.4144 596.085 58.2244 596.335 57.7644C596.395 57.6444 596.425 57.5144 596.435 57.3744C596.435 56.8144 596.055 56.3744 595.255 56.3744C594.205 56.4744 593.255 57.0544 592.685 57.9444C592.085 57.7244 591.455 57.6144 590.815 57.6044C587.875 57.6044 586.665 58.7744 586.685 60.7044C586.675 62.0944 587.665 63.2844 589.025 63.5344C587.925 63.6844 587.025 64.3244 587.025 65.0844C587.025 66.1744 588.465 66.6744 589.295 66.7344C588.495 66.8144 586.735 66.8544 586.615 68.7344C586.495 70.6144 588.485 71.6444 590.705 71.6644C594.345 71.6644 595.765 70.0644 595.765 67.9644C595.765 65.8644 594.015 65.2144 592.035 65.2144H590.265C588.955 65.2144 588.555 64.7744 588.555 64.4544C588.555 63.9244 589.145 63.7044 589.395 63.6244C589.645 63.5444 590.395 63.6844 590.615 63.6844C592.405 63.6844 594.615 62.9544 594.615 60.6844C594.605 60.2544 594.505 59.8244 594.325 59.4344L594.235 59.2644C594.165 59.1544 594.085 59.0544 594.005 58.9544L593.895 58.8344L593.545 58.4944C593.375 58.3744 593.205 58.2544 593.025 58.1444C593.185 57.8044 593.485 57.5544 593.845 57.4544" fill="#02033B"/>
</g>
</g>
<g clip-path="url(#clip9_14_846)">
<g clip-path="url(#clip10_14_846)">
<path fill-rule="evenodd" clip-rule="evenodd" d="M820.795 53.3543C818.495 55.3143 815.555 56.3843 812.535 56.3543C806.255 56.3543 802.185 51.9043 802.185 45.0143C802.185 41.0743 803.005 38.4643 804.925 36.3243C806.645 34.3443 809.185 33.2543 811.805 33.3743C814.135 33.3043 816.405 34.1543 818.125 35.7243C820.125 37.7743 821.035 40.7243 821.035 45.3043V46.6343H808.395V46.8043C808.395 50.1843 810.055 52.1143 813.015 52.1143C815.065 52.0743 817.045 51.3043 818.575 49.9343L820.795 53.3543ZM815.125 42.4443V42.2043C815.245 41.0643 815.005 39.9143 814.445 38.9143C813.905 38.0543 812.935 37.5643 811.925 37.6343C809.745 37.6343 808.505 39.3443 808.505 42.3843V42.4643L815.125 42.4443Z" fill="#02033B"/>
<path fill-rule="evenodd" clip-rule="evenodd" d="M835.545 37.8244H831.865V48.8244C831.865 51.6044 832.375 52.3344 834.345 52.3344C835.045 52.2944 835.735 52.1444 836.395 51.9144L837.125 55.3344C835.655 55.9844 834.065 56.3244 832.455 56.3344C829.555 56.3344 827.235 55.0544 826.555 53.1344C826.195 52.0444 826.065 50.8844 826.175 49.7444V37.8144H823.995V33.8844H826.175C826.135 32.1544 826.205 30.4244 826.385 28.7044L832.205 27.2544C831.985 29.4544 831.865 31.6744 831.865 33.8844H837.005L835.545 37.8244Z" fill="#02033B"/>
<path fill-rule="evenodd" clip-rule="evenodd" d="M793.495 26.0543L793.625 38.2043C793.625 40.2043 793.875 44.0643 794.095 46.3843C793.235 43.4943 792.145 40.6643 790.845 37.9443L785.125 26.0443H778.515V39.5543L763.435 7.20435L707.125 33.4643L733.375 89.7743L789.685 63.5143L784.235 51.8343L784.125 43.0843C784.125 40.6043 784.035 37.0843 783.825 34.6543C784.385 36.4943 786.185 40.6543 787.825 44.4143L792.925 55.7943H799.165V26.0543H793.495ZM761.205 55.4843H756.405V49.0843H759.745C764.255 49.0843 768.105 46.6143 768.105 40.9543C768.105 35.7543 764.675 32.8243 759.825 32.8243H755.595V47.3343L750.125 55.4843H718.725L734.125 32.8343H720.045L724.325 26.4343H747.555L732.255 49.0843H748.045V26.4343H761.205C769.225 26.1443 775.965 32.4043 776.255 40.4243C776.545 48.4443 770.285 55.1843 762.265 55.4743C762.125 55.4743 761.975 55.4743 761.835 55.4743H761.205" fill="#02033B"/>
</g>
</g>
<g clip-path="url(#clip11_14_846)">
<g clip-path="url(#clip12_14_846)">
<path d="M918.815 42.4293V39.4293H906.225V42.4293H910.605V54.4293H906.225V57.4293H918.815V54.4293H914.025V42.4293H918.815Z" fill="#02033B"/>
<path d="M939.715 42.5493H934.715V47.4893C934.715 47.4893 937.425 47.4093 939.655 47.4093C941.885 47.4093 942.445 46.9293 942.445 44.6993C942.445 42.1493 939.735 42.5393 939.735 42.5393" fill="#02033B"/>
<path d="M925.225 61.7494H951.225V35.2194H925.225V61.7494ZM946.015 53.0594V57.2194H942.425V53.3194C942.425 53.3194 942.425 50.3194 940.355 50.3194C938.285 50.3194 934.695 50.3994 934.695 50.3994V57.3294H931.195V39.4394H941.555C943.885 39.3094 945.885 41.0894 946.015 43.4294C946.015 43.4294 946.015 43.4294 946.015 43.4394C946.035 43.6494 946.035 43.8594 946.015 44.0694C946.015 48.9294 943.315 49.1694 943.315 49.1694C943.315 49.1694 946.015 49.3294 946.015 53.0694" fill="#02033B"/>
<path d="M956.045 39.4393V42.4393H958.515V54.4393H956.045V57.3893H971.265V51.5493H968.265V54.4193H961.785V49.5593H966.565V46.6093H961.785V42.3893H967.995V45.2193H971.265V39.4393H956.045Z" fill="#02033B"/>
<path d="M991.975 42.4694H986.555V54.4694H992.215C994.925 54.4694 995.005 50.9594 995.005 50.9594V46.2894C995.005 42.2294 992.005 42.4694 992.005 42.4694" fill="#02033B"/>
<path d="M977.125 61.7494H1003.12V35.2194H977.125V61.7494ZM992.425 57.5194C985.895 57.5194 982.945 57.5994 982.945 57.5994V39.5194H990.665C990.665 39.5194 998.665 38.6394 998.665 45.8094V50.8094C998.665 50.8094 998.985 57.4994 992.455 57.4994" fill="#02033B"/>
<path d="M873.125 61.7494H899.175V35.2194H873.125V61.7494ZM893.835 57.3594H889.375L886.505 44.3594L883.395 57.4394H879.015L875.355 39.5194H878.945L881.405 53.1394L884.595 39.5194L888.495 39.5994L891.685 53.3794L894.125 39.5194H897.545L893.835 57.3594Z" fill="#02033B"/>
</g>
</g>
</g>
<defs>
<clipPath id="clip0_14_846">
<rect width="1045.75" height="95" fill="white" transform="translate(0.25 0.984375)"/>
</clipPath>
<clipPath id="clip1_14_846">
<rect width="130" height="95" fill="white" transform="translate(43.125 0.984375)"/>
</clipPath>
<clipPath id="clip2_14_846">
<rect width="129.428" height="95" fill="white" transform="translate(43.4111 0.984375)"/>
</clipPath>
<clipPath id="clip3_14_846">
<rect width="130" height="95" fill="white" transform="translate(209.125 0.984375)"/>
</clipPath>
<clipPath id="clip4_14_846">
<rect width="130" height="19.62" fill="white" transform="translate(209.125 38.6743)"/>
</clipPath>
<clipPath id="clip5_14_846">
<rect width="130" height="95" fill="white" transform="translate(375.125 0.984375)"/>
</clipPath>
<clipPath id="clip6_14_846">
<rect width="130" height="42.52" fill="white" transform="translate(375.125 27.2244)"/>
</clipPath>
<clipPath id="clip7_14_846">
<rect width="130" height="95" fill="white" transform="translate(541.125 0.984375)"/>
</clipPath>
<clipPath id="clip8_14_846">
<rect width="130" height="46.52" fill="white" transform="translate(541.125 25.2244)"/>
</clipPath>
<clipPath id="clip9_14_846">
<rect width="130" height="95" fill="white" transform="translate(707.125 0.984375)"/>
</clipPath>
<clipPath id="clip10_14_846">
<rect width="130" height="82.56" fill="white" transform="translate(707.125 7.20435)"/>
</clipPath>
<clipPath id="clip11_14_846">
<rect width="130" height="95" fill="white" transform="translate(873.125 0.984375)"/>
</clipPath>
<clipPath id="clip12_14_846">
<rect width="130" height="26.53" fill="white" transform="translate(873.125 35.2194)"/>
</clipPath>
</defs>
</svg>
