<svg width="87" height="71" viewBox="0 0 87 71" fill="none" xmlns="http://www.w3.org/2000/svg">
<g filter="url(#filter0_dd_43_1718)">
<path fill-rule="evenodd" clip-rule="evenodd" d="M43.476 53.5583C61.7911 53.5583 76.6385 45.4116 76.6385 35.3621C76.6385 25.3127 61.7911 17.166 43.476 17.166C25.1608 17.166 10.3135 25.3127 10.3135 35.3621C10.3135 45.4116 25.1608 53.5583 43.476 53.5583Z" fill="white"/>
<path d="M75.1385 35.3621C75.1385 39.5852 71.9991 43.7338 66.2038 46.9137C60.4633 50.0635 52.4306 52.0583 43.476 52.0583C34.5213 52.0583 26.4886 50.0635 20.7481 46.9137C14.9528 43.7338 11.8135 39.5852 11.8135 35.3621C11.8135 31.1391 14.9528 26.9904 20.7481 23.8106C26.4886 20.6608 34.5213 18.666 43.476 18.666C52.4306 18.666 60.4633 20.6608 66.2038 23.8106C71.9991 26.9904 75.1385 31.1391 75.1385 35.3621Z" stroke="white" stroke-width="3"/>
</g>
<path d="M48.6067 33.8644C49.1781 33.8644 49.6414 33.6103 49.6414 33.2967C49.6414 32.9832 49.1781 32.729 48.6067 32.729C48.0353 32.729 47.572 32.9832 47.572 33.2967C47.572 33.6103 48.0353 33.8644 48.6067 33.8644Z" fill="#0A142F"/>
<path fill-rule="evenodd" clip-rule="evenodd" d="M39.8281 35.7258C39.8281 37.0304 41.7617 38.0913 44.1392 38.0913C46.5168 38.0913 48.4504 37.0304 48.4504 35.7258C48.4504 34.4213 46.5168 33.3604 44.1392 33.3604C41.7617 33.3604 39.8281 34.4213 39.8281 35.7258ZM41.9839 35.7262C41.9839 35.0739 42.9507 34.5435 44.1395 34.5435C45.3283 34.5435 46.295 35.0739 46.295 35.7262C46.295 36.3785 45.3283 36.909 44.1395 36.909C42.9507 36.909 41.9839 36.3785 41.9839 35.7262Z" fill="#0A142F"/>
<path fill-rule="evenodd" clip-rule="evenodd" d="M39.828 40.4571H48.4502C50.6661 40.4571 52.7613 39.3075 52.7613 38.0916V33.3606C52.7613 32.1447 50.6661 30.9951 48.4502 30.9951H39.828C37.6121 30.9951 35.5168 32.1447 35.5168 33.3606V38.0916C35.5168 39.3075 37.6121 40.4571 39.828 40.4571ZM37.6722 33.3605C37.6722 32.8075 38.82 32.1777 39.8278 32.1777H48.45C49.4577 32.1777 50.6056 32.8075 50.6056 33.3605V38.0915C50.6056 38.6444 49.4577 39.2742 48.45 39.2742H39.8278C38.8006 39.2742 37.6722 38.6551 37.6722 38.0915V33.3605Z" fill="#0A142F"/>
<defs>
<filter id="filter0_dd_43_1718" x="0.313477" y="0.166016" width="86.325" height="70.3923" filterUnits="userSpaceOnUse" color-interpolation-filters="sRGB">
<feFlood flood-opacity="0" result="BackgroundImageFix"/>
<feColorMatrix in="SourceAlpha" type="matrix" values="0 0 0 0 0 0 0 0 0 0 0 0 0 0 0 0 0 0 127 0" result="hardAlpha"/>
<feOffset dy="7"/>
<feGaussianBlur stdDeviation="5"/>
<feColorMatrix type="matrix" values="0 0 0 0 0.294118 0 0 0 0 0.294118 0 0 0 0 0.294118 0 0 0 0.1 0"/>
<feBlend mode="normal" in2="BackgroundImageFix" result="effect1_dropShadow_43_1718"/>
<feColorMatrix in="SourceAlpha" type="matrix" values="0 0 0 0 0 0 0 0 0 0 0 0 0 0 0 0 0 0 127 0" result="hardAlpha"/>
<feOffset dy="-7"/>
<feGaussianBlur stdDeviation="5"/>
<feColorMatrix type="matrix" values="0 0 0 0 0.294118 0 0 0 0 0.294118 0 0 0 0 0.294118 0 0 0 0.01 0"/>
<feBlend mode="normal" in2="effect1_dropShadow_43_1718" result="effect2_dropShadow_43_1718"/>
<feBlend mode="normal" in="SourceGraphic" in2="effect2_dropShadow_43_1718" result="shape"/>
</filter>
</defs>
</svg>
