<svg width="87" height="71" viewBox="0 0 87 71" fill="none" xmlns="http://www.w3.org/2000/svg">
<g filter="url(#filter0_dd_43_1714)">
<path fill-rule="evenodd" clip-rule="evenodd" d="M43.3307 53.5583C61.6458 53.5583 76.4932 45.4116 76.4932 35.3621C76.4932 25.3127 61.6458 17.166 43.3307 17.166C25.0156 17.166 10.1682 25.3127 10.1682 35.3621C10.1682 45.4116 25.0156 53.5583 43.3307 53.5583Z" fill="white"/>
<path d="M74.9932 35.3621C74.9932 39.5852 71.8539 43.7338 66.0586 46.9137C60.318 50.0635 52.2854 52.0583 43.3307 52.0583C34.376 52.0583 26.3434 50.0635 20.6028 46.9137C14.8075 43.7338 11.6682 39.5852 11.6682 35.3621C11.6682 31.1391 14.8075 26.9904 20.6028 23.8106C26.3434 20.6608 34.376 18.666 43.3307 18.666C52.2854 18.666 60.318 20.6608 66.0586 23.8106C71.8539 26.9904 74.9932 31.1391 74.9932 35.3621Z" stroke="white" stroke-width="3"/>
</g>
<path d="M52.9954 31.9772C52.2848 32.1737 51.5742 32.2391 50.7451 32.3046C51.5742 32.0427 52.1663 31.6499 52.4032 31.1261C51.6926 31.388 50.8635 31.5189 49.916 31.6499C49.2054 31.257 48.1395 30.9951 47.0735 30.9951C45.0601 30.9951 43.2835 31.9772 43.2835 33.1558C43.2835 33.3522 43.2835 33.4831 43.402 33.6141C40.2042 33.5486 37.2432 32.6974 35.3482 31.388C34.9929 31.7153 34.8745 32.0427 34.8745 32.501C34.8745 33.2212 35.5851 33.876 36.651 34.2688C36.0588 34.2688 35.4667 34.1379 34.8745 34.0069V34.0069C34.8745 35.0545 36.1773 35.9057 37.9538 36.1021C37.5985 36.1676 37.2432 36.1676 36.8879 36.1676C36.651 36.1676 36.4142 36.1676 36.1773 36.1021C36.651 36.9533 38.0723 37.608 39.8488 37.608C38.546 38.1973 36.8879 38.5247 34.9929 38.5247C34.6376 38.5247 34.4007 38.5247 34.0454 38.5247C35.822 39.1139 37.8354 39.5068 39.9673 39.5068C47.0735 39.5068 50.982 36.2331 50.982 33.4177C50.982 33.3522 50.982 33.2212 50.982 33.1558C51.811 32.8284 52.5217 32.4356 52.9954 31.9772Z" fill="#0A142F"/>
<defs>
<filter id="filter0_dd_43_1714" x="0.168213" y="0.166016" width="86.325" height="70.3923" filterUnits="userSpaceOnUse" color-interpolation-filters="sRGB">
<feFlood flood-opacity="0" result="BackgroundImageFix"/>
<feColorMatrix in="SourceAlpha" type="matrix" values="0 0 0 0 0 0 0 0 0 0 0 0 0 0 0 0 0 0 127 0" result="hardAlpha"/>
<feOffset dy="7"/>
<feGaussianBlur stdDeviation="5"/>
<feColorMatrix type="matrix" values="0 0 0 0 0.294118 0 0 0 0 0.294118 0 0 0 0 0.294118 0 0 0 0.1 0"/>
<feBlend mode="normal" in2="BackgroundImageFix" result="effect1_dropShadow_43_1714"/>
<feColorMatrix in="SourceAlpha" type="matrix" values="0 0 0 0 0 0 0 0 0 0 0 0 0 0 0 0 0 0 127 0" result="hardAlpha"/>
<feOffset dy="-7"/>
<feGaussianBlur stdDeviation="5"/>
<feColorMatrix type="matrix" values="0 0 0 0 0.294118 0 0 0 0 0.294118 0 0 0 0 0.294118 0 0 0 0.01 0"/>
<feBlend mode="normal" in2="effect1_dropShadow_43_1714" result="effect2_dropShadow_43_1714"/>
<feBlend mode="normal" in="SourceGraphic" in2="effect2_dropShadow_43_1714" result="shape"/>
</filter>
</defs>
</svg>
