<svg width="52" height="49" viewBox="0 0 52 49" fill="none" xmlns="http://www.w3.org/2000/svg">
<path d="M50.6866 13.4562L27.1083 0.505337C26.4153 0.125337 25.5823 0.125337 24.8916 0.505337L1.32498 13.4562C0.190982 14.0832 -0.231352 15.5225 0.379982 16.6767C0.799982 17.4723 1.60498 17.9236 2.43331 17.9236C2.80665 17.9236 3.18932 17.8333 3.54165 17.6386L5.25431 16.6981L8.96431 43.4168C9.46831 46.3001 12.021 48.3141 15.171 48.3141H36.829C39.979 48.3141 42.5316 46.3001 43.0403 43.3551L46.7457 16.6957L48.4653 17.641C49.597 18.2656 51.0133 17.8357 51.6246 16.6815C52.2383 15.5272 51.8113 14.0856 50.682 13.4633L50.6866 13.4562ZM26 32.6581C21.8116 32.6581 18.4166 29.2025 18.4166 24.9393C18.4166 20.6762 21.8116 17.2206 26 17.2206C30.1883 17.2206 33.5833 20.6762 33.5833 24.9393C33.5833 29.2025 30.1883 32.6581 26 32.6581Z" fill="#1DA1F2"/>
</svg>
